<?xml version="1.0" encoding="UTF-8"?>
<!DOCTYPE svg PUBLIC "-//W3C//DTD SVG 1.1//EN" "http://www.w3.org/Graphics/SVG/1.1/DTD/svg11.dtd">
<!-- Creator: CorelDRAW -->
<svg xmlns="http://www.w3.org/2000/svg" xml:space="preserve" width="2048px" height="2048px" style="shape-rendering:geometricPrecision; text-rendering:geometricPrecision; image-rendering:optimizeQuality; fill-rule:evenodd; clip-rule:evenodd"
viewBox="0 0 2048 2048"
 xmlns:xlink="http://www.w3.org/1999/xlink">
 <defs>
  <style type="text/css">
   <![CDATA[
    .fil2 {fill:none}
    .fil4 {fill:#37474F}
    .fil3 {fill:#CFD8DC}
    .fil1 {fill:#E64A19}
    .fil0 {fill:#FF7043}
   ]]>
  </style>
   <clipPath id="id0">
    <path d="M1024 0c565.538,0 1024,458.462 1024,1024 0,565.538 -458.462,1024 -1024,1024 -565.538,0 -1024,-458.462 -1024,-1024 0,-565.538 458.462,-1024 1024,-1024z"/>
   </clipPath>
 </defs>
 <g id="Layer_x0020_1">
  <metadata id="CorelCorpID_0Corel-Layer"/>
  <path class="fil0" d="M1024 0c565.538,0 1024,458.462 1024,1024 0,565.538 -458.462,1024 -1024,1024 -565.538,0 -1024,-458.462 -1024,-1024 0,-565.538 458.462,-1024 1024,-1024z"/>
  <g style="clip-path:url(#id0)">
   <g id="_385691872">
    <g>
     <polygon id="_3650092801" class="fil1" points="1532.01,472.491 2667.89,1608.37 2669.23,1610.17 2670.4,1612.09 2671.38,1614.13 2672.17,1616.28 2672.74,1618.51 2673.1,1620.83 2673.22,1623.22 1537.33,487.333 1537.21,484.947 1536.86,482.631 1536.29,480.395 1535.5,478.25 1534.52,476.211 1533.35,474.287 "/>
     <polygon id="_365009808" class="fil1" points="1537.33,487.333 2673.22,1623.22 2673.22,2696.55 1537.33,1560.67 "/>
     <polygon id="_365009424" class="fil1" points="1537.33,1560.67 2673.22,2696.55 2673.1,2698.93 2672.74,2701.25 2672.17,2703.49 2671.38,2705.63 2670.4,2707.67 2669.23,2709.59 2667.89,2711.39 2666.38,2713.05 2664.72,2714.55 2662.93,2715.9 2661,2717.07 2658.96,2718.05 2656.82,2718.83 2654.58,2719.41 2652.27,2719.76 2649.88,2719.88 1514,1584 1516.39,1583.88 1518.7,1583.53 1520.94,1582.95 1523.08,1582.17 1525.12,1581.18 1527.05,1580.01 1528.84,1578.67 1530.5,1577.17 1532.01,1575.51 1533.35,1573.71 1534.52,1571.79 1535.5,1569.75 1536.29,1567.61 1536.86,1565.37 1537.21,1563.05 "/>
     <polygon id="_365009544" class="fil1" points="1514,1584 2649.88,2719.88 1669.88,2719.88 534,1584 "/>
     <polygon id="_365010096" class="fil1" points="534,1584 1669.88,2719.88 1667.5,2719.76 1665.18,2719.41 1662.94,2718.83 1660.8,2718.05 1658.76,2717.07 1656.84,2715.9 1655.04,2714.55 519.157,1578.67 520.954,1580.01 522.878,1581.18 524.918,1582.17 527.061,1582.95 529.297,1583.53 531.615,1583.88 "/>
    </g>
    <path id="_385691800" class="fil1" d="M645.096 463.999l868.903 0c12.887,0 23.3351,10.448 23.3351,23.3339l0 1073.33c0,12.887 -10.448,23.3339 -23.3351,23.3339l-979.999 0c-12.887,0 -23.3351,-10.4469 -23.3351,-23.3339 0,-4.75158 1.42205,-9.17009 3.86103,-12.8575l107.235 -197.325 0 -863.151c0,-12.8858 10.448,-23.3339 23.3351,-23.3339z"/>
   </g>
  </g>
  <path class="fil2" d="M1024 0c565.538,0 1024,458.462 1024,1024 0,565.538 -458.462,1024 -1024,1024 -565.538,0 -1024,-458.462 -1024,-1024 0,-565.538 458.462,-1024 1024,-1024z"/>
  <path class="fil3" d="M645.096 463.999l868.903 0c12.887,0 23.3351,10.448 23.3351,23.3339l0 1073.33c0,12.887 -10.448,23.3339 -23.3351,23.3339l-979.999 0c-12.887,0 -23.3351,-10.4469 -23.3351,-23.3339 0,-4.75158 1.42205,-9.17009 3.86103,-12.8575l107.235 -197.325 0 -863.151c0,-12.8858 10.448,-23.3339 23.3351,-23.3339z"/>
  <path class="fil4" d="M769.225 1373.77c-12.8858,0 -23.3339,10.448 -23.3339,23.3339 0,12.887 10.448,23.3351 23.3339,23.3351l626.216 0c12.8858,0 23.3339,-10.448 23.3339,-23.3351 0,-12.8858 -10.448,-23.3339 -23.3339,-23.3339l-626.216 0z"/>
  <path class="fil0" d="M1059 837.333c0,12.8858 10.4469,23.3339 23.3339,23.3339 12.8858,0 23.3339,-10.448 23.3339,-23.3339l0 -168.118c0,-12.887 -10.448,-23.3339 -23.3339,-23.3339 -12.887,0 -23.3339,10.4469 -23.3339,23.3339l0 168.118z"/>
  <path class="fil0" d="M1082.33 581.031c12.8858,0 23.3339,10.448 23.3339,23.3339 0,12.887 -10.448,23.3339 -23.3339,23.3339 -12.887,0 -23.3339,-10.4469 -23.3339,-23.3339 0,-12.8858 10.4469,-23.3339 23.3339,-23.3339z"/>
  <path class="fil4" d="M977.332 907.106c-12.887,0 -23.3339,10.4469 -23.3339,23.3339 0,12.8858 10.4469,23.3339 23.3339,23.3339l210.001 0c12.887,0 23.3339,-10.448 23.3339,-23.3339 0,-12.887 -10.4469,-23.3339 -23.3339,-23.3339l-210.001 0z"/>
  <path class="fil4" d="M769.225 1023.77c-12.8858,0 -23.3339,10.4469 -23.3339,23.3339 0,12.8858 10.448,23.3339 23.3339,23.3339l626.216 0c12.8858,0 23.3339,-10.448 23.3339,-23.3339 0,-12.887 -10.448,-23.3339 -23.3339,-23.3339l-626.216 0z"/>
  <path class="fil4" d="M769.225 1140.44c-12.8858,0 -23.3339,10.448 -23.3339,23.3351 0,12.8858 10.448,23.3339 23.3339,23.3339l626.216 0c12.8858,0 23.3339,-10.448 23.3339,-23.3339 0,-12.887 -10.448,-23.3351 -23.3339,-23.3351l-626.216 0z"/>
  <path class="fil4" d="M769.225 1257.11c-12.8858,0 -23.3339,10.448 -23.3339,23.3351 0,12.8858 10.448,23.3339 23.3339,23.3339l626.216 0c12.8858,0 23.3339,-10.448 23.3339,-23.3339 0,-12.887 -10.448,-23.3351 -23.3339,-23.3351l-626.216 0z"/>
 </g>
</svg>
