<?xml version="1.0" encoding="iso-8859-1"?>
<!-- Generator: Adobe Illustrator 19.0.0, SVG Export Plug-In . SVG Version: 6.00 Build 0)  -->
<svg version="1.1" id="Layer_1" xmlns="http://www.w3.org/2000/svg" xmlns:xlink="http://www.w3.org/1999/xlink" x="0px" y="0px"
	 viewBox="0 0 512 512" style="enable-background:new 0 0 512 512;" xml:space="preserve">
<circle style="fill:#F7B239;" cx="256.012" cy="236.019" r="227.083"/>
<circle style="fill:#E09B2D;" cx="256.012" cy="236.019" r="149.47"/>
<g>
	<path style="fill:#E6E6E6;" d="M404.973,196.91c0.917,3.408,1.346,6.839,1.346,10.211c0,17.36-11.581,33.242-29.143,37.948
		c-20.982,5.624-42.548-6.827-48.159-27.809l-2.621-9.794l37.972-10.175l37.984-10.187L404.973,196.91z"/>
	<path style="fill:#E6E6E6;" d="M171.516,75.987c28.56,7.649,41.559,51.71,29.048,98.392c-12.51,46.694-40.76,59.55-69.32,51.901
		c-28.548-7.649-46.587-32.908-34.076-79.602S142.968,68.338,171.516,75.987z"/>
</g>
<g>
	<path style="fill:#F24C8F;" d="M460.317,477.764c0.465,1.74,0.691,3.491,0.691,5.207c0,8.876-5.922,16.99-14.893,19.397
		c-10.711,2.871-21.732-3.491-24.604-14.202l-33.754-125.974c-2.871-10.711,3.491-21.732,14.202-24.604
		c10.723-2.871,21.732,3.491,24.604,14.214L460.317,477.764z"/>
	<path style="fill:#F24C8F;" d="M101.422,337.587c10.723,2.871,17.074,13.893,14.202,24.604L81.882,488.166
		c-2.407,8.972-10.521,14.893-19.397,14.893c-1.716,0-3.467-0.226-5.207-0.691c-10.723-2.871-17.086-13.893-14.214-24.604
		l33.754-125.963C79.689,341.078,90.71,334.716,101.422,337.587z"/>
</g>
<path d="M223.522,99.016c0.64,0,1.29-0.069,1.941-0.213c17.727-3.927,36.556-4.369,54.467-1.299
	c4.865,0.836,9.483-2.433,10.317-7.298c0.834-4.865-2.433-9.483-7.298-10.317c-20.182-3.46-41.373-2.961-61.351,1.464
	c-4.818,1.068-7.859,5.838-6.791,10.657C215.729,96.179,219.423,99.016,223.522,99.016z"/>
<path d="M355.376,335.388c-26.544,26.544-61.835,41.162-99.374,41.162c-44.727,0-87.193-21.599-113.597-57.778
	c-2.91-3.988-8.5-4.861-12.485-1.95c-3.987,2.91-4.86,8.5-1.95,12.485c29.758,40.772,77.621,65.114,128.033,65.114
	c42.312,0,82.091-16.478,112.012-46.397c3.49-3.49,3.49-9.148,0-12.637S358.866,331.898,355.376,335.388z"/>
<path d="M443.282,379.644c31.455-40.989,48.731-91.805,48.731-143.625C492.013,105.878,386.141,0,256.006,0
	C125.865,0,19.987,105.878,19.987,236.019c0,48.729,14.658,95.314,42.427,135.014L34.436,475.449
	c-2.006,7.49-0.977,15.312,2.9,22.026c3.877,6.714,10.136,11.517,17.624,13.524c2.501,0.67,5.039,1.001,7.56,1.001
	c5.029,0,9.994-1.319,14.466-3.901c6.714-3.876,11.518-10.136,13.524-17.624l18.672-69.682
	c41.647,33.129,93.244,51.235,146.826,51.235c50.294,0,99.37-16.172,139.667-45.766l17.206,64.213
	c2.006,7.49,6.809,13.748,13.524,17.624c4.473,2.582,9.435,3.901,14.466,3.901c2.521,0,5.059-0.331,7.56-1.001
	c7.488-2.008,13.747-6.809,17.624-13.524c3.876-6.714,4.907-14.536,2.9-22.024L443.282,379.644z M73.245,485.848
	c-0.771,2.877-2.616,5.283-5.196,6.772c-2.58,1.489-5.586,1.886-8.463,1.114c-2.879-0.771-5.283-2.616-6.772-5.196
	c-1.489-2.581-1.886-5.586-1.114-8.464l33.753-125.966c0.771-2.877,2.616-5.283,5.196-6.772c1.718-0.992,3.626-1.499,5.558-1.499
	c0.969,0,1.944,0.128,2.905,0.385l0,0c2.877,0.771,5.283,2.616,6.772,5.196c1.489,2.581,1.886,5.586,1.114,8.464L73.245,485.848z
	 M256.006,454.154c-52.148,0-102.265-18.544-141.746-52.324l10-37.322c2.006-7.49,0.977-15.312-2.9-22.026
	c-2.335-4.045-5.547-7.379-9.359-9.843l25.708-95.946c2.894,0.396,5.751,0.593,8.563,0.593c11.085,0,21.46-3.068,30.593-9.13
	c14.968-9.933,25.847-27.248,32.334-51.46c14-52.246-1.537-100.273-35.369-109.339c-33.833-9.064-71.3,24.76-85.299,77.006
	c-6.488,24.213-5.723,44.647,2.272,60.733c6.116,12.304,16.279,21.495,29.646,26.956l-25.71,95.949
	c-4.536,0.226-8.985,1.52-13.03,3.857c-6.228,3.596-10.779,9.257-13.012,16.03c-20.225-33.71-30.84-72.01-30.84-111.87
	c0-120.288,97.86-218.148,218.147-218.148c120.28,0,218.135,97.86,218.135,218.147c0,43.88-12.678,85.474-36.828,121.349
	l-2.112-7.885c-3.336-12.449-14.326-20.836-26.552-21.472l-20.746-77.426c8.706-4.162,15.957-10.832,20.887-19.369
	c6.446-11.163,8.158-24.168,4.821-36.619L385.047,88.005c-1.277-4.767-6.178-7.594-10.945-6.32
	c-4.767,1.277-7.596,6.178-6.32,10.945l23.622,88.161l-20.719,5.551l-23.622-88.161c-1.277-4.767-6.179-7.593-10.945-6.32
	c-4.767,1.277-7.596,6.178-6.32,10.945l23.622,88.161l-20.719,5.552l-23.622-88.161c-1.277-4.767-6.18-7.593-10.945-6.32
	c-4.767,1.277-7.596,6.178-6.32,10.945l28.562,106.595c5.771,21.536,25.319,35.773,46.625,35.773c1.205,0,2.415-0.06,3.628-0.153
	l20.751,77.442c-3.813,2.464-7.024,5.799-9.359,9.843c-3.876,6.714-4.906,14.536-2.9,22.024l11.551,43.111
	C352.437,437.664,304.844,454.154,256.006,454.154z M133.562,217.65c-27.774-7.442-37.634-31.827-27.765-68.662
	c10.03-37.433,34.967-65.206,56.966-65.206c2.183,0,4.337,0.273,6.445,0.839c23.347,6.255,33.757,46.303,22.731,87.449l0,0
	c-5.327,19.881-13.722,33.741-24.953,41.195C157.482,219.573,146.237,221.046,133.562,217.65z M366.678,205.919
	c0.001,0,0.002,0,0.004,0c0.001,0,0.002-0.001,0.004-0.001l29.346-7.864l0.313,1.17c2.101,7.84,1.022,16.029-3.035,23.057
	c-4.058,7.029-10.611,12.058-18.45,14.157c-16.186,4.336-32.879-5.303-37.215-21.486l-0.313-1.17L366.678,205.919z M450.575,488.539
	c-1.489,2.581-3.895,4.425-6.772,5.196c-2.879,0.771-5.883,0.375-8.463-1.114c-2.581-1.489-4.425-3.895-5.196-6.772l-33.752-125.966
	c-0.771-2.877-0.375-5.883,1.114-8.463c1.489-2.581,3.895-4.425,6.772-5.196c0.963-0.259,1.931-0.381,2.883-0.381
	c4.924,0,9.442,3.291,10.776,8.268l33.752,125.967C452.461,482.953,452.065,485.959,450.575,488.539z"/>
<g>
</g>
<g>
</g>
<g>
</g>
<g>
</g>
<g>
</g>
<g>
</g>
<g>
</g>
<g>
</g>
<g>
</g>
<g>
</g>
<g>
</g>
<g>
</g>
<g>
</g>
<g>
</g>
<g>
</g>
</svg>
